#!OML:ASF E:\emotionWalksFemale\Project 1\Capture day 1\Session 1\Female1.ASF
:FULLY-SPECIFIED
:DEGREES
438
root 8.31854 15.6371 8.30899 11.9573 -87.738 -13.9474
lowerback 9.65528 0.597745 3.14266
upperback -3.72802 1.17774 -0.434695
thorax -9.34257 0.361385 -2.44061
lowerneck -7.68762 -4.13218 -9.06336
upperneck 9.12882 -5.27763 7.13762
head 4.41789 -2.54658 3.34178
rclavicle -1.90989e-014 -9.61621e-015
rhumerus -43.471 21.2291 -99.8015
rradius 45.2023
rwrist 19.8557
rhand -0.812656 -53.7526
rfingers 7.12502
rthumb 24.8118 -82.1629
lclavicle -1.90989e-014 -9.61621e-015
lhumerus -36.4112 -4.53504 87.4977
lradius 40.8311
lwrist -7.45523
lhand -6.06373 -34.6138
lfingers 7.12502
lthumb 19.7711 -5.5993
rfemur 4.99564 20.2734 30.5258
rtibia 15.3725
rfoot -18.5905 -26.3609
rtoes 14.4604
lfemur -1.6649 -22.9627 -25.7832
ltibia 22.7791
lfoot -26.0492 19.6727
ltoes 4.06925
439
root 8.31506 15.6463 8.31504 12.4074 -87.7704 -14.3677
lowerback 9.6757 0.590758 3.06806
upperback -3.80269 1.15975 -0.431003
thorax -9.4388 0.354055 -2.39291
lowerneck -7.7037 -4.11925 -8.95181
upperneck 9.27498 -5.28214 7.14646
head 4.46267 -2.54554 3.3256
rclavicle -1.85056e-014 -5.2181e-016
rhumerus -43.7921 21.5363 -99.9444
rradius 45.215
rwrist 19.6362
rhand -1.08859 -53.9075
rfingers 7.12502
rthumb 24.5473 -82.3539
lclavicle -1.85056e-014 -5.2181e-016
lhumerus -36.49 -4.42081 87.5695
lradius 41.0112
lwrist -7.25368
lhand -5.66799 -34.3502
lfingers 7.12502
lthumb 20.1515 -5.37536
rfemur 4.82802 20.1523 30.5044
rtibia 15.5531
rfoot -18.5313 -26.4641
rtoes 14.0636
lfemur -1.54423 -23.4863 -25.7679
ltibia 22.705
lfoot -27.6269 18.2812
ltoes 15.2
440
root 8.31204 15.6476 8.32102 14.8407 -87.7574 -16.6783
lowerback 9.61939 0.562039 3.14694
upperback -3.90853 1.1293 -0.442251
thorax -9.52262 0.330474 -2.44431
lowerneck -7.7193 -4.1082 -8.84108
upperneck 9.41966 -5.2882 7.14613
head 4.50686 -2.54566 3.30658
rclavicle 2.02046e-014 -5.2181e-016
rhumerus -43.9749 21.5187 -99.9994
rradius 45.0026
rwrist 19.5588
rhand -1.54649 -53.895
rfingers 7.12502
rthumb 24.1083 -82.4004
lclavicle 2.02046e-014 -5.2181e-016
lhumerus -36.7201 -4.42286 87.6254
lradius 41.3909
lwrist -6.87686
lhand -5.1873 -34.1614
lfingers 7.12502
lthumb 20.6134 -5.23595
rfemur 4.40797 19.8024 30.4911
rtibia 15.9679
rfoot -18.4227 -26.3969
rtoes 13.1001
lfemur -1.59543 -23.4292 -25.6388
ltibia 22.535
lfoot -27.6589 18.2261
ltoes 15.9707
441
root 8.30839 15.6376 8.3278 16.8487 -87.8136 -18.5587
lowerback 9.48882 0.556476 3.18447
upperback -3.97575 1.12124 -0.453315
thorax -9.51931 0.32265 -2.474
lowerneck -7.81705 -4.08942 -8.73463
upperneck 9.62225 -5.27788 7.13319
head 4.581 -2.53693 3.28407
rclavicle 1.70831e-016 -9.49197e-015
rhumerus -44.0228 21.2885 -99.9154
rradius 44.6076
rwrist 19.7333
rhand -1.92857 -53.8205
rfingers 7.12502
rthumb 23.7419 -82.3739
lclavicle 1.70831e-016 -9.49197e-015
lhumerus -36.8914 -4.66162 87.7454
lradius 41.7646
lwrist -6.38255
lhand -4.9628 -33.7556
lfingers 7.12502
lthumb 20.8292 -4.85364
rfemur 4.03393 19.4632 30.4617
rtibia 16.2807
rfoot -17.7699 -26.5817
rtoes 10.4293
lfemur -1.83275 -22.5694 -25.5829
ltibia 22.39
lfoot -25.2742 20.2179
ltoes 0.0342657
442
root 8.30076 15.6251 8.33689 16.8189 -88.0536 -18.6074
lowerback 9.42593 0.632485 3.09032
upperback -3.93234 1.20615 -0.475667
thorax -9.42972 0.371382 -2.45751
lowerneck -7.917 -4.10628 -8.71125
upperneck 9.84437 -5.31525 7.19005
head 4.66957 -2.55077 3.29335
rclavicle -6.1499e-015 2.38542e-015
rhumerus -44.0525 21.1793 -99.8233
rradius 44.1587
rwrist 19.74
rhand -2.29546 -53.9977
rfingers 7.12502
rthumb 23.39 -82.5964
lclavicle -6.1499e-015 2.38542e-015
lhumerus -36.9967 -5.15869 88.0352
lradius 42.0827
lwrist -5.79096
lhand -4.83753 -33.0414
lfingers 7.12502
lthumb 20.9495 -4.15275
rfemur 4.01537 19.4805 30.3949
rtibia 16.59
rfoot -18.2007 -26.4525
rtoes 11.3715
lfemur -1.88196 -21.6623 -25.8149
ltibia 22.2632
lfoot -24.1823 21.9305
ltoes -10.4507
443
root 8.29799 15.642 8.34255 17.4164 -88.1093 -19.0826
lowerback 9.27413 0.661649 3.01783
upperback -3.96466 1.22915 -0.488101
thorax -9.37497 0.387029 -2.43086
lowerneck -7.9472 -4.12256 -8.72355
upperneck 10.0077 -5.35926 7.31746
head 4.73187 -2.56648 3.33132
rclavicle -2.78547e-014 8.10048e-015
rhumerus -44.1958 21.1886 -99.8231
rradius 43.8165
rwrist 19.6225
rhand -2.42879 -54.3796
rfingers 7.12502
rthumb 23.2621 -82.9945
lclavicle -2.78547e-014 8.10048e-015
lhumerus -37.1776 -5.54219 88.3477
lradius 42.456
lwrist -5.2822
lhand -4.23778 -32.5803
lfingers 7.12502
lthumb 21.5256 -3.75642
rfemur 3.85468 19.5419 30.359
rtibia 16.7785
rfoot -18.9216 -26.2607
rtoes 14.093
lfemur -1.7488 -22.2661 -25.7692
ltibia 22.2392
lfoot -24.3128 21.1346
ltoes -7.00391
444
root 8.29565 15.6442 8.3462 19.4173 -88.0656 -21.0085
lowerback 9.26513 0.654365 3.0138
upperback -4.0454 1.21777 -0.498686
thorax -9.45888 0.378202 -2.43891
lowerneck -7.85854 -4.1141 -8.67421
upperneck 10.0682 -5.37708 7.40275
head 4.73776 -2.57155 3.35013
rclavicle -1.89901e-014 1.54058e-015
rhumerus -44.2857 20.7692 -99.6988
rradius 43.353
rwrist 20.0314
rhand -2.27472 -54.3782
rfingers 7.12502
rthumb 23.4099 -82.9743
lclavicle -1.89901e-014 1.54058e-015
lhumerus -37.4339 -5.63118 88.5679
lradius 42.7463
lwrist -5.16497
lhand -3.40587 -32.4909
lfingers 7.12502
lthumb 22.3244 -3.76058
rfemur 3.71373 19.3281 30.4532
rtibia 16.7972
rfoot -18.3309 -26.6659
rtoes 12.4838
lfemur -1.80499 -22.2848 -25.6207
ltibia 22.3145
lfoot -25.4449 20.0652
ltoes 0.182232
445
root 8.29288 15.642 8.34816 22.2019 -88.0018 -23.7316
lowerback 9.27331 0.668948 2.93992
upperback -4.12576 1.2317 -0.456358
thorax -9.55313 0.387712 -2.35565
lowerneck -7.72868 -4.1353 -8.65709
upperneck 10.07 -5.43046 7.48432
head 4.72249 -2.59607 3.37108
rclavicle -7.15625e-015 4.96962e-016
rhumerus -44.2116 20.0079 -99.3665
rradius 42.6692
rwrist 20.6656
rhand -2.38419 -54.1476
rfingers 7.12502
rthumb 23.3049 -82.7571
lclavicle -7.15625e-015 4.96962e-016
lhumerus -37.7292 -5.83844 88.8288
lradius 43.0233
lwrist -5.09381
lhand -2.63817 -32.2799
lfingers 7.12502
lthumb 23.0612 -3.63977
rfemur 3.64271 18.9143 30.5544
rtibia 16.5891
rfoot -17.5949 -27.0176
rtoes 11.1747
lfemur -1.99081 -22.0844 -25.4372
ltibia 22.5041
lfoot -25.3592 19.8296
ltoes -0.591032
446
root 8.29108 15.645 8.35163 25.8364 -87.9038 -27.276
lowerback 9.21793 0.663874 2.96143
upperback -4.16957 1.23037 -0.404709
thorax -9.56941 0.386452 -2.31159
lowerneck -7.77639 -4.19309 -8.82287
upperneck 10.2365 -5.52566 7.72645
head 4.80069 -2.63572 3.46605
rclavicle 3.90736e-015 -1.39149e-015
rhumerus -44.213 19.605 -99.1558
rradius 42.0734
rwrist 20.9358
rhand -2.6289 -54.2091
rfingers 7.12502
rthumb 23.0701 -82.8481
lclavicle 3.90736e-015 -1.39149e-015
lhumerus -38.0284 -6.34145 89.1329
lradius 43.3921
lwrist -4.71619
lhand -1.55268 -31.8755
lfingers 7.12502
lthumb 24.1024 -3.36937
rfemur 3.5337 18.457 30.6813
rtibia 16.4337
rfoot -17.2965 -27.2103
rtoes 10.9558
lfemur -2.1984 -21.9585 -25.213
ltibia 22.6772
lfoot -25.1772 19.8336
ltoes -2.03576
447
root 8.29022 15.6493 8.35663 27.8961 -87.8114 -29.27
lowerback 9.22285 0.611282 2.98018
upperback -4.20714 1.16558 -0.369166
thorax -9.61812 0.353574 -2.27362
lowerneck -7.88048 -4.24201 -9.06317
upperneck 10.4096 -5.60347 8.03262
head 4.89324 -2.66457 3.59396
rclavicle -4.05024e-015 -2.5842e-015
rhumerus -44.3956 19.7176 -99.1687
rradius 41.6905
rwrist 20.8368
rhand -2.421 -54.4358
rfingers 7.12502
rthumb 23.2695 -83.0497
lclavicle -4.05024e-015 -2.5842e-015
lhumerus -38.273 -6.81272 89.4377
lradius 43.6872
lwrist -4.31508
lhand -0.425815 -31.4796
lfingers 7.12502
lthumb 25.1825 -3.12091
rfemur 3.42262 18.0675 30.7711
rtibia 16.3377
rfoot -16.9737 -27.428
rtoes 9.68184
lfemur -2.35041 -21.8901 -25.0784
ltibia 22.825
lfoot -25.2359 19.8646
ltoes -2.35624
448
root 8.28932 15.6451 8.36212 27.7579 -87.6929 -28.9563
lowerback 9.08479 0.558044 2.96979
upperback -4.26878 1.08934 -0.350445
thorax -9.60942 0.317014 -2.23259
lowerneck -7.86476 -4.26468 -9.15326
upperneck 10.3886 -5.64468 8.19903
head 4.89497 -2.67944 3.65827
rclavicle -8.72168e-015 -8.94531e-016
rhumerus -44.527 19.7032 -99.065
rradius 41.2298
rwrist 20.8929
rhand -2.15904 -54.4894
rfingers 7.12502
rthumb 23.5208 -83.0714
lclavicle -8.72168e-015 -8.94531e-016
lhumerus -38.4783 -7.21048 89.8341
lradius 43.8605
lwrist -4.08147
lhand 0.131521 -31.1828
lfingers 7.12502
lthumb 25.7163 -2.90016
rfemur 3.33097 17.9835 30.7421
rtibia 16.136
rfoot -17.4385 -27.1751
rtoes 11.6283
lfemur -2.7422 -21.6994 -24.9746
ltibia 23.0117
lfoot -24.6345 20.2914
ltoes -6.93285
449
root 8.29103 15.6272 8.36499 27.6254 -87.5661 -28.7003
lowerback 8.99456 0.515596 2.95452
upperback -4.30832 1.02829 -0.33597
thorax -9.60366 0.288318 -2.19681
lowerneck -7.92814 -4.25623 -9.12523
upperneck 10.4659 -5.64322 8.24871
head 4.92978 -2.67378 3.66847
rclavicle 1.33683e-014 5.96354e-016
rhumerus -44.5289 19.4473 -98.8618
rradius 40.5649
rwrist 21.2308
rhand -2.30287 -54.4703
rfingers 7.12502
rthumb 23.3829 -83.0699
lclavicle 1.33683e-014 5.96354e-016
lhumerus -38.6689 -7.60376 90.2319
lradius 43.9448
lwrist -3.99922
lhand 0.609163 -31.1179
lfingers 7.12502
lthumb 26.1737 -2.90226
rfemur 3.37684 18.1262 30.7902
rtibia 15.8543
rfoot -17.9843 -27.0319
rtoes 14.0079
lfemur -3.27719 -20.9201 -24.8708
ltibia 23.2163
lfoot -23.9643 21.0168
ltoes -13.0459
450
root 8.28522 15.6335 8.35808 28.9519 -87.5035 -30.0199
lowerback 8.92653 0.499458 2.66899
upperback -4.30057 0.975033 -0.244972
thorax -9.56255 0.284883 -1.92834
lowerneck -7.99679 -4.23516 -9.16545
upperneck 10.5651 -5.62446 8.35578
head 4.97419 -2.65896 3.70935
rclavicle 8.69683e-016 1.20265e-014
rhumerus -44.7453 19.6359 -98.9429
rradius 40.1134
rwrist 21.1915
rhand -2.51096 -54.7973
rfingers 7.12502
rthumb 23.1832 -83.4221
lclavicle 8.69683e-016 1.20265e-014
lhumerus -38.8087 -7.94906 90.5653
lradius 43.9369
lwrist -4.03464
lhand 1.30802 -31.078
lfingers 7.12502
lthumb 26.8426 -2.96329
rfemur 3.47707 18.242 31.0666
rtibia 15.5005
rfoot -16.4053 -28.2667
rtoes 8.91798
lfemur -3.14446 -21.5036 -24.7022
ltibia 23.4504
lfoot -24.4473 19.9702
ltoes -8.4016
451
root 8.28471 15.6418 8.35669 29.3122 -87.4772 -30.386
lowerback 8.96162 0.499544 2.50475
upperback -4.30996 0.95746 -0.216546
thorax -9.59681 0.287162 -1.8032
lowerneck -7.91091 -4.25318 -9.37152
upperneck 10.4933 -5.6623 8.63631
head 4.9548 -2.67195 3.83033
rclavicle -1.00262e-014 -5.26779e-015
rhumerus -45.1374 20.0914 -99.1608
rradius 39.8744
rwrist 20.8803
rhand -2.55188 -55.3371
rfingers 7.12502
rthumb 23.144 -83.9669
lclavicle -1.00262e-014 -5.26779e-015
lhumerus -38.9418 -8.42258 90.9086
lradius 43.9386
lwrist -4.05643
lhand 1.83835 -30.8478
lfingers 7.12502
lthumb 27.35 -2.81209
rfemur 3.87296 19.1574 31.1921
rtibia 15.177
rfoot -19.4096 -27.6313
rtoes 19.9806
lfemur -3.12916 -21.9704 -24.6342
ltibia 23.6659
lfoot -26.1767 18.5079
ltoes 3.65823
452
root 8.28647 15.6477 8.36113 29.2257 -87.4966 -30.2893
lowerback 9.04509 0.533018 2.46889
upperback -4.33467 0.996094 -0.265164
thorax -9.67114 0.304795 -1.84327
lowerneck -7.81076 -4.31064 -9.46023
upperneck 10.4528 -5.75425 8.77542
head 4.94056 -2.71545 3.88329
rclavicle -9.21864e-015 -2.98177e-016
rhumerus -45.2878 20.0163 -99.104
rradius 39.3881
rwrist 21.0848
rhand -2.16659 -55.4442
rfingers 7.12502
rthumb 23.5136 -84.0271
lclavicle -9.21864e-015 -2.98177e-016
lhumerus -39.0996 -9.08905 91.2517
lradius 43.9094
lwrist -4.07264
lhand 2.16144 -30.8403
lfingers 7.12502
lthumb 27.659 -2.85382
rfemur 3.94854 18.9884 31.179
rtibia 14.8561
rfoot -18.3816 -28.0243
rtoes 17.2827
lfemur -3.19985 -22.0788 -24.6361
ltibia 23.8328
lfoot -26.7266 18.0363
ltoes 7.1636
